<svg width="20" height="20" viewBox="0 0 20 20" fill="none" xmlns="http://www.w3.org/2000/svg">
<path d="M19 9.49998C19.0034 10.8199 18.695 12.1219 18.1 13.3C17.3944 14.7117 16.3097 15.8991 14.9674 16.7293C13.6251 17.5594 12.0782 17.9994 10.5 18C9.18012 18.0034 7.8781 17.695 6.69999 17.1L1 19L2.9 13.3C2.30493 12.1219 1.99656 10.8199 2 9.49998C2.00061 7.92174 2.44061 6.37484 3.27072 5.03254C4.10082 3.69024 5.28825 2.60556 6.69999 1.9C7.8781 1.30493 9.18012 0.996557 10.5 0.999998H11C13.0843 1.11499 15.053 1.99476 16.5291 3.47085C18.0052 4.94695 18.885 6.91564 19 8.99999V9.49998Z" stroke="white" stroke-width="2" stroke-linecap="round" stroke-linejoin="round"/>
</svg>
