<svg width="25" height="25" viewBox="0 0 25 25" fill="none" xmlns="http://www.w3.org/2000/svg">
<g clip-path="url(#clip0_3_77)">
<path d="M21.5131 4.94676C21.0024 4.43577 20.396 4.03041 19.7285 3.75385C19.061 3.47729 18.3456 3.33494 17.6231 3.33494C16.9007 3.33494 16.1852 3.47729 15.5178 3.75385C14.8503 4.03041 14.2439 4.43577 13.7331 4.94676L12.6731 6.00676L11.6131 4.94676C10.5814 3.91507 9.18217 3.33547 7.72314 3.33547C6.26411 3.33547 4.86483 3.91507 3.83314 4.94676C2.80145 5.97846 2.22185 7.37773 2.22185 8.83676C2.22185 10.2958 2.80145 11.6951 3.83314 12.7268L4.89314 13.7868L12.6731 21.5668L20.4531 13.7868L21.5131 12.7268C22.0241 12.216 22.4295 11.6096 22.7061 10.9421C22.9826 10.2747 23.125 9.55925 23.125 8.83676C23.125 8.11428 22.9826 7.39887 22.7061 6.73141C22.4295 6.06395 22.0241 5.45752 21.5131 4.94676V4.94676Z" stroke="white" stroke-width="2" stroke-linecap="round" stroke-linejoin="round"/>
</g>
<defs>
<clipPath id="clip0_3_77">
<rect width="24" height="24" fill="white" transform="translate(0.673141 0.336761)"/>
</clipPath>
</defs>
</svg>
