<svg width="24" height="21" viewBox="0 0 24 21" fill="none" xmlns="http://www.w3.org/2000/svg">
<path d="M20.5131 2.94676C20.0024 2.43577 19.396 2.03041 18.7285 1.75385C18.061 1.47729 17.3456 1.33494 16.6231 1.33494C15.9007 1.33494 15.1852 1.47729 14.5178 1.75385C13.8503 2.03041 13.2439 2.43577 12.7331 2.94676L11.6731 4.00676L10.6131 2.94676C9.58145 1.91507 8.18217 1.33547 6.72314 1.33547C5.26411 1.33547 3.86483 1.91507 2.83314 2.94676C1.80145 3.97846 1.22185 5.37773 1.22185 6.83676C1.22185 8.2958 1.80145 9.69507 2.83314 10.7268L3.89314 11.7868L11.6731 19.5668L19.4531 11.7868L20.5131 10.7268C21.0241 10.216 21.4295 9.60958 21.7061 8.94212C21.9826 8.27466 22.125 7.55925 22.125 6.83676C22.125 6.11428 21.9826 5.39887 21.7061 4.73141C21.4295 4.06395 21.0241 3.45752 20.5131 2.94676V2.94676Z" stroke="#CCCCCC" stroke-width="2" stroke-linecap="round" stroke-linejoin="round"/>
</svg>
