<svg width="18" height="18" viewBox="0 0 18 18" fill="none" xmlns="http://www.w3.org/2000/svg">
<mask id="path-1-inside-1_3_80" fill="white">
<path d="M9 9C10.1935 9 11.3381 8.52589 12.182 7.68198C13.0259 6.83807 13.5 5.69347 13.5 4.5C13.5 3.30653 13.0259 2.16193 12.182 1.31802C11.3381 0.474106 10.1935 0 9 0C7.80653 0 6.66193 0.474106 5.81802 1.31802C4.97411 2.16193 4.5 3.30653 4.5 4.5C4.5 5.69347 4.97411 6.83807 5.81802 7.68198C6.66193 8.52589 7.80653 9 9 9V9ZM12 4.5C12 5.29565 11.6839 6.05871 11.1213 6.62132C10.5587 7.18393 9.79565 7.5 9 7.5C8.20435 7.5 7.44129 7.18393 6.87868 6.62132C6.31607 6.05871 6 5.29565 6 4.5C6 3.70435 6.31607 2.94129 6.87868 2.37868C7.44129 1.81607 8.20435 1.5 9 1.5C9.79565 1.5 10.5587 1.81607 11.1213 2.37868C11.6839 2.94129 12 3.70435 12 4.5V4.5ZM18 16.5C18 18 16.5 18 16.5 18H1.5C1.5 18 0 18 0 16.5C0 15 1.5 10.5 9 10.5C16.5 10.5 18 15 18 16.5ZM16.5 16.494C16.4985 16.125 16.269 15.015 15.252 13.998C14.274 13.02 12.4335 12 9 12C5.565 12 3.726 13.02 2.748 13.998C1.731 15.015 1.503 16.125 1.5 16.494H16.5Z"/>
</mask>
<path d="M9 0L9 -2L9 0ZM9 7.5L9 9.5L9 7.5ZM6 4.5L4 4.5L6 4.5ZM9 1.5L9 -0.5L9 1.5ZM16.5 16.494V18.494H18.5081L18.5 16.4859L16.5 16.494ZM1.5 16.494L-0.499934 16.4777L-0.516326 18.494H1.5V16.494ZM9 11C10.7239 11 12.3772 10.3152 13.5962 9.09619L10.7678 6.26777C10.2989 6.73661 9.66304 7 9 7V11ZM13.5962 9.09619C14.8152 7.87721 15.5 6.22391 15.5 4.5H11.5C11.5 5.16304 11.2366 5.79893 10.7678 6.26777L13.5962 9.09619ZM15.5 4.5C15.5 2.77609 14.8152 1.12279 13.5962 -0.0961939L10.7678 2.73223C11.2366 3.20107 11.5 3.83696 11.5 4.5H15.5ZM13.5962 -0.0961939C12.3772 -1.31518 10.7239 -2 9 -2L9 2C9.66304 2 10.2989 2.26339 10.7678 2.73223L13.5962 -0.0961939ZM9 -2C7.27609 -2 5.62279 -1.31518 4.40381 -0.0961939L7.23223 2.73223C7.70107 2.26339 8.33696 2 9 2L9 -2ZM4.40381 -0.0961939C3.18482 1.12279 2.5 2.77609 2.5 4.5H6.5C6.5 3.83696 6.76339 3.20107 7.23223 2.73223L4.40381 -0.0961939ZM2.5 4.5C2.5 6.22391 3.18482 7.87721 4.40381 9.09619L7.23223 6.26777C6.76339 5.79893 6.5 5.16304 6.5 4.5H2.5ZM4.40381 9.09619C5.62279 10.3152 7.27609 11 9 11L9 7C8.33696 7 7.70107 6.73661 7.23223 6.26777L4.40381 9.09619ZM10 4.5C10 4.76522 9.89464 5.01957 9.70711 5.20711L12.5355 8.03553C13.4732 7.09785 14 5.82608 14 4.5H10ZM9.70711 5.20711C9.51957 5.39464 9.26522 5.5 9 5.5L9 9.5C10.3261 9.5 11.5979 8.97322 12.5355 8.03553L9.70711 5.20711ZM9 5.5C8.73478 5.5 8.48043 5.39464 8.29289 5.20711L5.46447 8.03553C6.40215 8.97322 7.67392 9.5 9 9.5L9 5.5ZM8.29289 5.20711C8.10536 5.01957 8 4.76522 8 4.5L4 4.5C4 5.82608 4.52678 7.09785 5.46447 8.03553L8.29289 5.20711ZM8 4.5C8 4.23478 8.10536 3.98043 8.29289 3.79289L5.46447 0.964466C4.52678 1.90215 4 3.17392 4 4.5H8ZM8.29289 3.79289C8.48043 3.60536 8.73478 3.5 9 3.5L9 -0.5C7.67392 -0.5 6.40215 0.0267838 5.46447 0.964466L8.29289 3.79289ZM9 3.5C9.26522 3.5 9.51957 3.60536 9.70711 3.79289L12.5355 0.964466C11.5979 0.0267842 10.3261 -0.5 9 -0.5L9 3.5ZM9.70711 3.79289C9.89464 3.98043 10 4.23478 10 4.5L14 4.5C14 3.17392 13.4732 1.90215 12.5355 0.964466L9.70711 3.79289ZM16 16.5C16 16.525 15.9995 16.4108 16.1015 16.2578C16.1952 16.1173 16.3058 16.0485 16.3556 16.0236C16.3799 16.0115 16.3955 16.0066 16.3999 16.0052C16.4027 16.0044 16.4042 16.0041 16.4047 16.004C16.4051 16.0039 16.4053 16.0038 16.4056 16.0038C16.4058 16.0037 16.4069 16.0036 16.4092 16.0033C16.4115 16.003 16.4156 16.0026 16.422 16.0022C16.4284 16.0017 16.4376 16.0012 16.4502 16.0007C16.4565 16.0005 16.4638 16.0003 16.472 16.0002C16.4762 16.0001 16.4806 16.0001 16.4852 16.0001C16.4875 16 16.4899 16 16.4924 16C16.4936 16 16.4949 16 16.4961 16C16.4968 16 16.4977 16 16.4981 16C16.499 16 16.5 16 16.5 18C16.5 20 16.501 20 16.502 20C16.5023 20 16.5033 20 16.504 20C16.5053 20 16.5067 20 16.5081 20C16.511 20 16.5139 20 16.517 19.9999C16.5231 19.9999 16.5296 19.9998 16.5366 19.9997C16.5505 19.9995 16.5662 19.9991 16.5835 19.9985C16.618 19.9974 16.6595 19.9954 16.7069 19.992C16.8011 19.9853 16.9226 19.9728 17.0632 19.9494C17.3348 19.9041 17.7275 19.8098 18.1444 19.6014C18.5692 19.389 19.0548 19.039 19.4297 18.4766C19.813 17.9017 20 17.225 20 16.5H16ZM16.5 16H1.5V20H16.5V16ZM1.5 18C1.5 16 1.50097 16 1.50194 16C1.50226 16 1.50322 16 1.50385 16C1.50512 16 1.50637 16 1.5076 16C1.51006 16 1.51246 16 1.51479 16.0001C1.51944 16.0001 1.52382 16.0001 1.52795 16.0002C1.5362 16.0003 1.54345 16.0005 1.54978 16.0007C1.56238 16.0012 1.57162 16.0017 1.57804 16.0022C1.58444 16.0026 1.58854 16.003 1.59082 16.0033C1.59308 16.0036 1.59415 16.0037 1.59442 16.0038C1.59467 16.0038 1.59489 16.0039 1.59534 16.004C1.59577 16.0041 1.59732 16.0044 1.60009 16.0052C1.60448 16.0066 1.62011 16.0115 1.64443 16.0236C1.69419 16.0485 1.80479 16.1173 1.89848 16.2578C2.00051 16.4108 2 16.525 2 16.5H-2C-2 17.225 -1.81301 17.9017 -1.42973 18.4766C-1.05479 19.039 -0.569187 19.389 -0.144427 19.6014C0.272502 19.8098 0.665218 19.9041 0.936827 19.9494C1.07737 19.9728 1.19887 19.9853 1.29305 19.992C1.34049 19.9954 1.38195 19.9974 1.41652 19.9985C1.43384 19.9991 1.44952 19.9995 1.46344 19.9997C1.47041 19.9998 1.47695 19.9999 1.48304 19.9999C1.48609 20 1.48903 20 1.49185 20C1.49327 20 1.49465 20 1.49601 20C1.49669 20 1.49769 20 1.49803 20C1.49902 20 1.5 20 1.5 18ZM2 16.5C2 16.2635 2.17609 15.2773 3.10171 14.3517C3.96873 13.4847 5.67178 12.5 9 12.5V8.5C4.82822 8.5 2.03127 9.7653 0.273286 11.5233C-1.42609 13.2227 -2 15.2365 -2 16.5H2ZM9 12.5C12.3282 12.5 14.0313 13.4847 14.8983 14.3517C15.8239 15.2773 16 16.2635 16 16.5H20C20 15.2365 19.4261 13.2227 17.7267 11.5233C15.9687 9.7653 13.1718 8.5 9 8.5V12.5ZM18.5 16.4859C18.4964 15.6063 18.0682 13.9857 16.6662 12.5838L13.8378 15.4122C14.1397 15.7141 14.3112 16.0157 14.4061 16.2473C14.454 16.3642 14.4804 16.4586 14.4936 16.519C14.5095 16.5916 14.5004 16.5856 14.5 16.5021L18.5 16.4859ZM16.6662 12.5838C15.2434 11.1609 12.8564 10 9 10V14C12.0106 14 13.3046 14.8791 13.8378 15.4122L16.6662 12.5838ZM9 10C5.14196 10 2.75652 11.161 1.33379 12.5838L4.16221 15.4122C4.69548 14.879 5.98804 14 9 14V10ZM1.33379 12.5838C-0.0709463 13.9885 -0.492863 15.608 -0.499934 16.4777L3.49993 16.5103C3.49929 16.5895 3.49084 16.5926 3.50682 16.5198C3.52027 16.4584 3.54683 16.3636 3.5947 16.2466C3.68956 16.0149 3.86079 15.7136 4.16221 15.4122L1.33379 12.5838ZM1.5 18.494H16.5V14.494H1.5V18.494Z" fill="white" mask="url(#path-1-inside-1_3_80)"/>
</svg>
